<svg height="24" width="24" xmlns="http://www.w3.org/2000/svg" xmlns:xlink="http://www.w3.org/1999/xlink"><defs><rect id="a" height="18" rx="2" width="24"/><mask id="b" fill="#fff"><use fill-rule="evenodd" xlink:href="#a"/></mask></defs><g fill="none" fill-rule="evenodd"><g transform="translate(0 3)"><use fill="#0a17a7" xlink:href="#a"/><rect fill="#003d8a" height="18" mask="url(#b)" rx="2" width="24"/><path d="M15 0v6h9v6h-9v6H9v-6H0V6h9V0z" fill="#fff" mask="url(#b)"/><path d="M24 0L0 18" mask="url(#b)" stroke="#fff" stroke-width="3"/><path d="M23.7-.4l.6.8-24 18-.6-.8z" fill="#c74634" mask="url(#b)"/><path d="M24 0L0 18" mask="url(#b)" stroke="#fff" stroke-width="3" transform="matrix(-1 0 0 1 24 0)"/><g fill="#e93526"><path d="M23.7-.4l.6.8-24 18-.6-.8z" mask="url(#b)" transform="matrix(-1 0 0 1 24 0)"/><path d="M14 0v7h10v4H14v7h-4v-7H0V7h10V0z" mask="url(#b)"/></g></g><rect height="17" opacity=".1" rx="2" stroke="#100f0e" width="23" x=".5" y="3.5"/></g></svg>